<?xml version="1.0" standalone="no"?>
<svg xmlns:xlink="http://www.w3.org/1999/xlink" id="wave" style="transform:rotate(0deg); transition: 0.3s" viewBox="0 0 1440 150" version="1.1" xmlns="http://www.w3.org/2000/svg"><defs><linearGradient id="sw-gradient-0" x1="0" x2="0" y1="1" y2="0"><stop stop-color="rgba(35, 178, 195, 1)" offset="0%"/><stop stop-color="rgba(255, 255, 255, 1)" offset="100%"/></linearGradient></defs><path style="transform:translate(0, 0px); opacity:1" fill="url(#sw-gradient-0)" d="M0,45L20,55C40,65,80,85,120,85C160,85,200,65,240,70C280,75,320,105,360,107.5C400,110,440,85,480,72.5C520,60,560,60,600,62.5C640,65,680,70,720,62.5C760,55,800,35,840,40C880,45,920,75,960,87.5C1000,100,1040,95,1080,82.5C1120,70,1160,50,1200,42.5C1240,35,1280,40,1320,47.5C1360,55,1400,65,1440,65C1480,65,1520,55,1560,50C1600,45,1640,45,1680,50C1720,55,1760,65,1800,75C1840,85,1880,95,1920,92.5C1960,90,2000,75,2040,75C2080,75,2120,90,2160,90C2200,90,2240,75,2280,62.5C2320,50,2360,40,2400,30C2440,20,2480,10,2520,15C2560,20,2600,40,2640,40C2680,40,2720,20,2760,17.5C2800,15,2840,30,2860,37.5L2880,45L2880,150L2860,150C2840,150,2800,150,2760,150C2720,150,2680,150,2640,150C2600,150,2560,150,2520,150C2480,150,2440,150,2400,150C2360,150,2320,150,2280,150C2240,150,2200,150,2160,150C2120,150,2080,150,2040,150C2000,150,1960,150,1920,150C1880,150,1840,150,1800,150C1760,150,1720,150,1680,150C1640,150,1600,150,1560,150C1520,150,1480,150,1440,150C1400,150,1360,150,1320,150C1280,150,1240,150,1200,150C1160,150,1120,150,1080,150C1040,150,1000,150,960,150C920,150,880,150,840,150C800,150,760,150,720,150C680,150,640,150,600,150C560,150,520,150,480,150C440,150,400,150,360,150C320,150,280,150,240,150C200,150,160,150,120,150C80,150,40,150,20,150L0,150Z"/></svg>